<svg xmlns="http://www.w3.org/2000/svg" width="100" height="100" viewBox="0 0 100 100" fill="none">
  <g clip-path="url(#clip0_1384_22)">
    <path d="M49.5 25L80 40V70L49.5 85L19 70V40L49.5 25Z" fill="#1A1A1A" stroke="#0D9488" stroke-width="2"/>
    <path d="M49.5 26L79 40.5L49.5 55L20 40.5L49.5 26Z" fill="#262626"/>
    <path opacity="0.5" d="M49.5 39C54.1944 39 58 35.4183 58 31C58 26.5817 54.1944 23 49.5 23C44.8056 23 41 26.5817 41 31C41 35.4183 44.8056 39 49.5 39Z" stroke="#0D9488" stroke-dasharray="2 2"/>
    <path d="M24 40.5L49.5 28L75 40.5L49.5 53L24 40.5Z" fill="#0D9488" fill-opacity="0.15"/>
    <path d="M49.5 26C47.0148 26 45 27.97 45 30.4C45 32.83 49.5 37 49.5 37C49.5 37 54 32.83 54 30.4C54 27.97 51.9852 26 49.5 26Z" fill="#F8F8F8"/>
  </g>
  <defs>
    <clipPath id="clip0_1384_22">
      <rect width="100" height="100" fill="white"/>
    </clipPath>
  </defs>
</svg>
